<svg xmlns="http://www.w3.org/2000/svg" width="1200" height="800" viewBox="0 0 1200 800">
<defs><radialGradient id="bg" cx="50%" cy="40%"><stop offset="0" stop-color="#eadcf8"/><stop offset="1" stop-color="#5b356f"/></radialGradient><linearGradient id="gold" x1="0" y1="0" x2="1" y2="1"><stop stop-color="#fff0a8"/><stop offset=".5" stop-color="#d5a439"/><stop offset="1" stop-color="#7e5418"/></linearGradient><filter id="shadow"><feDropShadow dx="0" dy="10" stdDeviation="10" flood-opacity=".35"/></filter></defs>
<rect width="1200" height="800" fill="url(#bg)"/>
<g fill="#fff" opacity=".72"><circle cx="95" cy="90" r="4"/><circle cx="1080" cy="110" r="5"/><circle cx="1040" cy="650" r="4"/><circle cx="170" cy="675" r="5"/><circle cx="560" cy="92" r="3"/><circle cx="630" cy="700" r="4"/></g>
<g filter="url(#shadow)" stroke="url(#gold)" stroke-width="12" fill="#2d173e">
<rect x="80" y="210" width="320" height="375" rx="55"/><rect x="440" y="210" width="320" height="375" rx="55"/><rect x="800" y="210" width="320" height="375" rx="55"/>
</g>
<g transform="translate(240 370)"><path d="M0-95 C-35-140-105-120-95-45 C-55-50-25-30 0 0 C25-30 55-50 95-45 C105-120 35-140 0-95Z" fill="#d9c0ff" stroke="#f8e9ff" stroke-width="5"/><circle cy="-15" r="28" fill="#f4d0b8"/><path d="M-34-20 Q0-62 34-20 Q18-70 0-72 Q-18-70-34-20" fill="#d2a847"/><path d="M-10 20 Q0 65 10 20" stroke="#f4d0b8" stroke-width="16"/><path d="M-5 70 Q-55 110-72 62 M5 70 Q55 110 72 62" fill="none" stroke="#9f79d2" stroke-width="18"/><path d="M70-125 A70 70 0 1 0 70-5 A55 55 0 1 1 70-125" fill="#ffe66d"/></g>
<g transform="translate(600 380)" stroke="#f9d96c" stroke-width="8"><path d="M-60-110 L60-110 L92-35 L72 80 L-72 80 L-92-35 Z" fill="#6f4a24"/><path d="M-45-90 L45-90 L65-30 L50 48 L-50 48 L-65-30 Z" fill="#ffe792"/><path d="M0 38 C-28 8-20-26 0-50 C20-26 28 8 0 38Z" fill="#ff9b31" stroke="none"/><path d="M0-110 V-170 M-28-170 H28" fill="none"/><path d="M-95 80 H95 M-60 115 H60"/></g>
<g transform="translate(960 400)" stroke="#ead8ff" stroke-width="8"><path d="M-90-20 H70 V75 Q0 125-70 75 Z" fill="#8462a5"/><path d="M70 0 Q145 0 125 62 Q110 92 70 70" fill="none"/><path d="M-72 85 H90"/><path d="M-45-65 C-78-105-15-115-48-160 M5-65 C-28-110 38-118 5-170 M55-65 C25-100 85-118 55-155" fill="none" stroke="#fff" stroke-linecap="round"/></g>
<g font-family="Georgia,serif" fill="#fff" text-anchor="middle"><text x="240" y="640" font-size="31">Crescent Moon Fairy</text><text x="240" y="682" font-size="26">for Sera</text><text x="600" y="640" font-size="31">Lantern Token</text><text x="600" y="682" font-size="26">for Lysander</text><text x="960" y="640" font-size="31">Tea Steam Token</text><text x="960" y="682" font-size="26">for Gloop</text></g>
</svg>